Coordinates
version=1
nRows=4
nColumns=63
inDegrees=yes

Units are S.I. units (second, meters, Newtons, ...)
If the header above contains a line with 'inDegrees', this indicates whether rotational values are in degrees (yes) or radians (no).

endheader
time	pelvis_tilt	pelvis_list	pelvis_rotation	pelvis_tx	pelvis_ty	pelvis_tz	hip_flexion_r	hip_adduction_r	hip_rotation_r	knee_angle_r	knee_angle_r_beta	ankle_angle_r	subtalar_angle_r	mtp_angle_r	hip_flexion_l	hip_adduction_l	hip_rotation_l	knee_angle_l	knee_angle_l_beta	ankle_angle_l	subtalar_angle_l	mtp_angle_l	L5_S1_Flex_Ext	L5_S1_Lat_Bending	L5_S1_axial_rotation	L4_L5_Flex_Ext	L4_L5_Lat_Bending	L4_L5_axial_rotation	L3_L4_Flex_Ext	L3_L4_Lat_Bending	L3_L4_axial_rotation	L2_L3_Flex_Ext	L2_L3_Lat_Bending	L2_L3_axial_rotation	L1_L2_Flex_Ext	L1_L2_Lat_Bending	L1_L2_axial_rotation	L1_T12_Flex_Ext	L1_T12_Lat_Bending	L1_T12_axial_rotation	Abs_r3	Abs_r2	Abs_r1	Abs_t1	Abs_t2	neck_flexion	neck_bending	neck_rotation	arm_flex_r	arm_add_r	arm_rot_r	elbow_flex_r	pro_sup_r	wrist_flex_r	wrist_dev_r	arm_flex_l	arm_add_l	arm_rot_l	elbow_flex_l	pro_sup_l	wrist_flex_l	wrist_dev_l
      0.00000000	     -0.38914624	     -6.64302722	     98.66016039	      0.28145115	      0.91969797	      0.65587005	     -4.49942141	      3.07146632	      0.24235200	      3.09096197	      0.05394746	     25.71271917	     -8.99417182	      0.00000000	     -4.23063426	     -3.76225966	     22.01742715	      2.11402170	      0.03689664	     24.50451736	    -14.70301620	      0.00000000	     -0.08328248	      0.02956907	      0.62582885	     -0.15466389	      0.03932687	      0.66494315	     -0.13682478	      0.07189425	      0.66494315	     -0.09518354	      0.07189425	      0.54760024	     -0.07733611	      0.06029726	      0.50848594	     -0.04758761	      0.04580250	      0.46937164	     -0.59487840	      0.33449128	      3.48067230	      0.00000000	      0.00000000	     17.03166874	     -1.36839644	    -12.61566766	      0.84043323	    -12.86298436	     27.23038200	     82.03677737	     75.71084060	     12.01865483	     21.14267270	      4.95740196	    -16.41417087	     37.39097745	     83.10408234	     75.82142861	     -5.69470422	      8.03984653
      0.01666667	     -0.27901397	     -6.54266983	     99.69853433	      0.28053514	      0.91985128	      0.65570090	     -4.81453474	      3.26715644	     -0.08135529	      2.57564714	      0.04495352	     25.73985886	     -9.14319729	      0.00000000	     -3.99638509	     -3.90954557	     22.49366901	      2.27002495	      0.03961941	     24.66029386	    -14.37254448	      0.00000000	     -0.08490970	      0.04926443	      0.44588495	     -0.15768581	      0.06552169	      0.47375276	     -0.13949815	      0.11978154	      0.47375276	     -0.09704330	      0.11978154	      0.39014933	     -0.07884715	      0.10046003	      0.36228152	     -0.04851740	      0.07631061	      0.33441371	     -0.60650152	      0.55728911	      2.47987833	      0.00000000	      0.00000000	     17.35296372	     -1.38263316	    -12.04501213	     -0.38198805	    -11.95342173	     25.70350785	     81.88776163	     75.39100615	     11.26600805	     20.04075634	      5.00405131	    -16.78298378	     37.64331196	     82.96996081	     75.53731748	     -5.66645143	      7.71406949
      0.03333333	     -0.15657528	     -6.50627622	    101.89956265	      0.27808380	      0.92021551	      0.65642448	     -4.90856862	      3.52980211	     -2.93311784	      2.38408657	      0.04161016	     26.09004858	     -7.86050081	      0.00000000	     -3.29402115	     -4.08238092	     22.01370732	      2.84453328	      0.04964647	     26.03035906	    -10.93069639	      0.00000000	     -0.08441245	      0.06489076	      0.10823096	     -0.15676235	      0.08630471	      0.11499540	     -0.13868121	      0.15777539	      0.11499540	     -0.09647499	      0.15777539	      0.09470209	     -0.07838540	      0.13232524	      0.08793766	     -0.04823327	      0.10051579	      0.08117322	     -0.60294967	      0.73405724	      0.60194814	      0.00000000	      0.00000000	     17.22523839	     -1.42026511	    -12.30201607	     -1.30802462	    -11.57340101	     25.03941319	     81.87629972	     75.39019315	      8.84760785	     17.93294959	      5.72397757	    -17.32682918	     39.10501470	     82.39143976	     73.79895821	     -5.60995670	      6.09688096
      0.05000000	     -0.07591022	     -6.50640393	    102.70551598	      0.27729285	      0.92044037	      0.65650950	     -4.99144655	      3.70396221	     -2.27394694	      2.13600994	      0.03728041	     25.59353809	     -9.79340469	      0.00000000	     -3.17618566	     -4.16696364	     24.47089860	      2.61164377	      0.04558178	     25.51017693	    -13.64753702	      0.00000000	     -0.08064631	      0.07869743	     -0.02809965	     -0.14976825	      0.10466758	     -0.02985588	     -0.13249382	      0.19134493	     -0.02985588	     -0.09217066	      0.19134493	     -0.02458720	     -0.07488816	      0.16047980	     -0.02283097	     -0.04608130	      0.12190232	     -0.02107474	     -0.57604850	      0.89024108	     -0.15628184	      0.00000000	      0.00000000	     16.97962188	     -1.63064073	    -12.08986043	     -2.02757693	    -11.03028818	     24.29824921	     81.58017723	     76.67789450	      8.17239336	     16.10734140	      5.74683303	    -17.59826454	     39.44656446	     82.16070453	     72.80382530	     -5.14418457	      5.44519612
